<svg xmlns="http://www.w3.org/2000/svg"
     viewBox="0 0 600 600"
     width="600" height="600"
     preserveAspectRatio="xMidYMid meet"
     role="img" aria-labelledby="title desc">
  <title id="title">Hand Cursor – solid silhouette (no seams)</title>
  <desc id="desc">Single-path filled silhouette; the inner boundary is removed to eliminate gaps.</desc>

  <path fill="#000000" d="
    M180.00,27.00 L199.00,27.00 L215.00,32.00 L233.00,46.00 L243.00,63.00 L246.00,75.00 L247.00,229.00
    L263.00,223.00 L287.00,224.00 L306.00,233.00 L320.00,248.00 L326.00,242.00 L342.00,233.00 L365.00,230.00
    L387.00,237.00 L400.00,247.00 L406.00,255.00 L419.00,245.00 L430.00,240.00 L452.00,238.00 L468.00,242.00
    L477.00,247.00 L485.00,254.00 L495.00,269.00 L502.00,297.00 L500.00,311.00 L503.00,378.00 L499.00,432.00
    L491.00,475.00 L479.00,508.00 L462.00,535.00 L443.00,554.00 L412.00,573.00 L367.00,587.00 L325.00,592.00
    L260.00,591.00 L235.00,588.00 L222.00,584.00 L207.00,577.00 L180.00,559.00 L141.00,523.00 L106.00,477.00
    L88.00,443.00 L76.00,404.00 L74.00,385.00 L77.00,369.00 L85.00,354.00 L101.00,337.00 L127.00,321.00
    L125.00,216.00 L128.00,138.00 L134.00,72.00 L142.00,52.00 L155.00,38.00 L167.00,31.00 L180.00,27.00 Z"/>
</svg>